/* XPM */
static char *logo[] = {
/* columns rows colors chars-per-pixel */
"64 48 256 2 ",
"   c #1E1422",
".  c #222331",
"X  c #282934",
"o  c #3A3739",
"O  c #3D2739",
"+  c #661315",
"@  c #6D1C2B",
"#  c #40333F",
"$  c #442325",
"%  c #5A443B",
"&  c #604639",
"*  c #73503E",
"=  c #76493A",
"-  c #1C1D52",
";  c #1F1E5B",
":  c #1C1C44",
">  c #201E58",
",  c #291A42",
"<  c #1B254D",
"1  c #1B245D",
"2  c #1C2D5D",
"3  c #29294C",
"4  c #2F384D",
"5  c #383645",
"6  c #2B2C51",
"7  c #252956",
"8  c #322D5A",
"9  c #2D3556",
"0  c #353657",
"q  c #1C2D6C",
"w  c #172661",
"e  c #1E326B",
"r  c #1B2C73",
"t  c #1C357C",
"y  c #1E3476",
"u  c #212463",
"i  c #242B64",
"p  c #232668",
"a  c #232A6E",
"s  c #2B3B66",
"d  c #21346B",
"f  c #293869",
"g  c #252E74",
"h  c #233076",
"j  c #22347B",
"k  c #253B7D",
"l  c #583C40",
"z  c #443B59",
"x  c #403F6A",
"c  c #39404F",
"v  c #3D4455",
"b  c #2F406F",
"n  c #334165",
"m  c #384675",
"M  c #494647",
"N  c #55454C",
"B  c #594A4D",
"V  c #434A53",
"C  c #5B5958",
"Z  c #62504B",
"A  c #77574E",
"S  c #6C5C51",
"D  c #615851",
"F  c #7E5E54",
"G  c #626B5C",
"H  c #66675A",
"J  c #7C675C",
"K  c #777250",
"L  c #424563",
"P  c #4A556B",
"I  c #4C5666",
"U  c #53586A",
"Y  c #585966",
"T  c #424E72",
"R  c #445275",
"E  c #49597A",
"W  c #555F7B",
"Q  c #575C73",
"!  c #57666B",
"~  c #5C666B",
"^  c #4E627E",
"/  c #53677D",
"(  c #596878",
")  c #656867",
"_  c #746D69",
"`  c #696D7B",
"'  c #647473",
"]  c #6F717E",
"[  c #7B7C7D",
"{  c #76797C",
"}  c #811A1D",
"|  c #BA1A1D",
" . c #A22A2D",
".. c #925B3D",
"X. c #B7663E",
"o. c #865943",
"O. c #8B6049",
"+. c #9D6646",
"@. c #99654B",
"#. c #806A59",
"$. c #B26741",
"%. c #BA724E",
"&. c #AA7154",
"*. c #B57656",
"=. c #866E62",
"-. c #997A69",
";. c #8A7266",
":. c #A67D67",
">. c #A94F51",
",. c #FF5252",
"<. c #FF5A5A",
"1. c #DA7847",
"2. c #C97C57",
"3. c #E07946",
"4. c #FF6363",
"5. c #FF6B6B",
"6. c #FF7474",
"7. c #FF7C7C",
"8. c #79866D",
"9. c #778469",
"0. c #718070",
"q. c #E3E03E",
"w. c #8C925D",
"e. c #98A15F",
"r. c #AFB24E",
"t. c #B6BA51",
"y. c #818768",
"u. c #939A61",
"i. c #938076",
"p. c #B48066",
"a. c #A88473",
"s. c #A4A26B",
"d. c #AAA978",
"f. c #D5845B",
"g. c #E78554",
"h. c #1D3683",
"j. c #1E3885",
"k. c #1E398A",
"l. c #1E3B93",
"z. c #243683",
"x. c #233B8C",
"c. c #223E92",
"v. c #2B458B",
"b. c #3E5586",
"n. c #4A5F82",
"m. c #455885",
"M. c #4D6280",
"N. c #5B6684",
"B. c #636D89",
"V. c #6E7588",
"C. c #757886",
"Z. c #777C8B",
"A. c #6D7791",
"S. c #7E8083",
"D. c #7D8391",
"F. c #848687",
"G. c #8E8685",
"H. c #83868C",
"J. c #8A8989",
"K. c #8C8E90",
"L. c #848995",
"P. c #8B919F",
"I. c #93959D",
"U. c #969A9D",
"Y. c #999A9C",
"T. c #979795",
"R. c #A49A95",
"E. c #B59889",
"W. c #AEAD80",
"Q. c #B0AF84",
"!. c #B3B38C",
"~. c #B9B895",
"^. c #BCBB9B",
"/. c #B8B792",
"(. c #B8A398",
"). c #999CA1",
"_. c #9FA0A2",
"`. c #A4A4A5",
"'. c #AAABAE",
"]. c #A4A6A8",
"[. c #B9AAA5",
"{. c #BFBFA1",
"}. c #ACAEB3",
"|. c #A3A8B8",
" X c #AFB1B4",
".X c #AEB2BB",
"XX c #B2B3B4",
"oX c #B6B7B8",
"OX c #B7B8BA",
"+X c #BBBCBD",
"@X c #BCB6B4",
"#X c #FF8282",
"$X c #FF8B8B",
"%X c #FF9393",
"&X c #FF9D9D",
"*X c #C3AA96",
"=X c #FFA49D",
"-X c #C2B1B1",
";X c #D0BCB7",
":X c #C8B5AB",
">X c #FFA3A3",
",X c #FFABAB",
"<X c #FFB5B5",
"1X c #FFBCBC",
"2X c #C3C3A9",
"3X c #D9D5AB",
"4X c #CACAB5",
"5X c #CFCFBD",
"6X c #D7D4BC",
"7X c #D8CAAB",
"8X c #BEBFC1",
"9X c #B4B7C0",
"0X c #BDC1C8",
"qX c #C3C4C5",
"wX c #C4C5C9",
"eX c #CBCBCB",
"rX c #C7C9CE",
"tX c #D4D4C4",
"yX c #D8D9CD",
"uX c #D9D4CA",
"iX c #CDCFD6",
"pX c #D3D2D3",
"aX c #DCDBD3",
"sX c #DBDCDC",
"dX c #D9D5D3",
"fX c #DACCC4",
"gX c #FFC4C4",
"hX c #FFCBCB",
"jX c #E3DFC5",
"kX c #FFD0C6",
"lX c #E8DED0",
"zX c #FFD2D2",
"xX c #FFDBDB",
"cX c #DFE0D7",
"vX c #E6E3CA",
"bX c #E4E1C2",
"nX c #FFF5CD",
"mX c #E5E4DB",
"MX c #FFF7D3",
"NX c #FBF5D9",
"BX c #FFF8DC",
"VX c #E3E3E2",
"CX c #EAEAE5",
"ZX c #EDEDEC",
"AX c #FFE4E4",
"SX c #FFEBEB",
"DX c #FFF9E4",
"FX c #F2F2EE",
"GX c #FFFBEB",
"HX c #FBF1E6",
"JX c #F4F4F4",
"KX c #FEF5F4",
"LX c #FDFBF3",
"PX c #F7F8F8",
"IX c #FFFFFF",
"UX c #F7F7F8",
/* pixels */
"IXIXIXIXIXIXIXIXIXIXIXIXIXIXIXIXIXIXIXIXIXIXIXMXBXIXIXIXIXIXIXIXIXIXIXIXIXIXIXIXIXIXIXIXIXIXIXIXIXIXIXIXIXIXIXIXIXIXIXIXIXIXIXIX",
"IXIXIXIXIXIXIXIXIXIXIXIXIXIXIXIXIXIXVXuXPXIXIXIXIXIXDXBXIXtXtXIXIXIXIXIXIXIXIXIXIXIXIXIXIXIXIXIXIXIXIXIXIXIXIXIXIXIXIXIXIXIXIXIX",
"IXIXIXIXIXIXIXIXIXIXIXIXIXIXnXLXIXIX4Xs.JXIXIXIXIXIXLXIXIX~.~.IXIXIXGXDXIXIXIXIXIXIXIXIXIXIXIXIXIXIXIXIXIXIXIXIXIXIXIXIXIXIXIXIX",
"IXIXIXIXIXIXIXIXIXIXIXIXIXIXLXIXIXIXJXZXIXIXKXSXxXIXIXIXIXJXPXIXIXIXUXDXIXIXIXIXIXIXIXIXIXIXIXIXIXIXIXIXIXIXIXIXIXIXIXIXIXIXIXIX",
"IXIXIXIXIXIXIXIXIXIXIXIXIXIXPXIXIXIXIXIXIXhX6.%X6.gX>XAXgXAXzXSXIXIXIXIXIXIXIXIXIXIXIXIXIXIXIXIXIXIXIXIXIXIXIXIXIXIXIXIXIXIXIXIX",
"IXIXIXIXIXIXIXIXIXIXIXIXIX5XQ.JXIXIXKXxXKXxX,.5.5.#X,.6.7.7.%X<X1XAXxXIXIXIXIXIXIXIXIXIXIXIXIXIXIXIXIXIXIXIXIXIXIXIXIXIXIXIXIXIX",
"IXIXIXIXIXIXIXIXIXIXIXIXIXaX{.PXIXKX,X<.<XSX7.6.%X$X7.#X5.6.6.6.>X$X%XSXIXIXIXIXIXIXIXIXIXIXIXIXIXIXZX+XU.ZXIXIXIXIXIXIXIXIXIXIX",
"IXIXIXIXIXIXIXIXIXDXGXIXIXIXIXIX1X7.7.4.=XDXSXKXIXIXKX1X7.<XhX$X&X<.5.AXIXIXnXLXIXIXIXIXIXIXIXIXsXU.U D 8XIXIXIXIXIXIXIXIXIXIXIX",
"IXIXIXIXIXIXIXIXIXGXLXIXIXIXIXAX#X%X4.gXHXNXIXIXPXFXUXIXKXIXIXKXAX1X&XIXIXIXIXIXIXIXIXIXIXIXmXU.R K K P.IXIXIXIXIXIXIXIXIXIXIXIX",
"IXIXIXIXIXIXIXIXIXIXIXIXIXIXhX4.5.6.5.AXJX!.yXIXmXs.aXIXIXIXIXIXIXBXKXIXPXyXCXIXIXIXIXIXJX|.E ! 8.D D VXIXIXIXIXIXIXIXIXIXIXIXIX",
"IXIXIXIXIXIXIXIXIXIXIXIXIXKX1X6.6.zXxXIXJX/.aXIXJX4XZXIXIXIXPXIXIXDXLXIXFXs.4XIXIXIXIXVXH.' ^ m.) M ).IXIXIXIXIXIXIXIXIXIXIXIXIX",
"IXIXIXIXIXIXIXIXIXIXPXIXIX,X6.7.kXMXIXIXPXIXIXCXCXIXIXJXIXCX!.VXIXIXIXIXIXCXFXIXIXIXrXm.E q.r.T 8 I ZXIXIXIXIXIXIXIXIXIXIXIXIXIX",
"IXIXIXIXIXIXIXIXIX5X/.PXSX6.#XgXIXLXIXJX/.tXIXNX6XIXtXW.JXCX!.VXIXIXIXIXIXIXIXIXIXoXT v.^ t.w.x 6 '.IXIXIXIXIXIXIXIXIXIXIXIXIXIX",
"IXIXIXIXIXIXIXIXIXtX^.PXzX6.&XAXIXDXGXJX~.yXDXMX3XHXcX2XJXIXPXIXIXDXGXIXIXIXIXIX}.P ' ' ^ / T z ) JXIXIXIXIXIXIXIXIXIXIXIXIXIXIX",
"IXIXIXIXIXIXIXIXIXIXIXzX#X7.>XIXIXGXLXIXPXIXIXIXbXbXIXIXIXIXIXIXIXDXLXIXIXIXIX+XG 9.b.b.b.' Y 6  XIXIXIXIXIXIXIXIXIXIXIXIXIXIXIX",
"IXIXIXIXIXIXIXIXIXIXIXKXzX>XhXIXIXIXIXIXIXIXIXIXUX3XUXIXIXIXIXIXIXIXIXIXIXIXsXm r.{ l.v.^ ! D _ FXIXIXIXIXIXIXIXIXIXIXIXIXIXIXIX",
"IXIXIXIXIXIXIXIXIXIXIXIXIXIXIXIXIXIXIXIXIXIXIXIXIXbXjXIXIXIXIXIXIXIXIXIXIXUXB.k.e.8.8.u.;.J Z `.IXIXIXIXIXIXIXIXIXIXIXIXIXIXIXIX",
"IXIXIXIXIXIXIXIXIXIXIXIXIXIXIXIXIXIXIXIXIXIXIXIXIXUX7XJXIXIXIXIXIXIXIXIXJXT.Y M./ 8.y.u.Q O.N wXIXIXIXIXIXIXIXIXIXIXIXIXIXIXIXIX",
"IXIXIXIXIXIXIXIXIXIXIXIXIXIXIXZX~.CXIXIXIXIXIXIXIXIXlX*X:X;XmXIXIXIXIXUXS.v H G ! ) ~ ( m 8 0 pXIXIXIXIXIXIXIXIXIXIXIXIXIXIXIXIX",
"IXIXIXIXIXIXIXIXIXIXIXIXIXIXIXCXd.cXIXIXIXIXIXIXIXIXuX+...%.E.8XZXIXIXCX4 5 ..*.@.& B M D B 4 VXIXIXIXIXIXIXIXIXIXIXIXIXIXIXIXIX",
"IXIXIXIXIXIXIXIXIXIXIXIXIXIXIXIXPXIXIXIXIXIXIXIXIXIXdXO.$.2.O.7 |.IXIXIXoXM #.f.* A +.&._ N B VXIXIXIXIXIXIXIXIXIXIXIXIXIXIXIXIX",
"IXIXIXIXIXIXIXIXIXIXIXIXIXIXIXIXIXIXIXIXIXIXIXIXIXIXUX[.o.3.2.3 B.PXIXIXuXJ i.2.S _.p.g.*XJ.X OXIXIXIXIXIXIXIXIXIXIXIXIXIXIXIXIX",
"IXIXIXIXIXIXIXIXIXIXIXIXIXIXIXIXIXIXIXIXIXIXIXIXIXIXIXIX-X= X.A m pXIXPX(.E.a.*.-.=.f.g.a.;.* pXIXIXIXIXIXIXIXIXIXIXIXIXIXIXIXIX",
"IXIXIXIXIXIXIXIXIXIXIXIXIXIXIXIXIXIXIXIXIXIXIXIXIXIXIXIXiXf O l k.A.JXJXqXZXeXmXaXT.%.1.;.@.-.JXIXIXIXIXIXIXIXIXIXIXIXIXIXIXIXIX",
"IXIXIXIXIXIXIXIXIXIXIXIXIXIXIXIXIXIXIXIXIXIXIXIXIXIXIXIX9Xi ; < l.t L.ZX].'. XoXoXG.*.:.G.#.uXIXIXIXIXIXIXIXIXIXIXIXIXIXIXIXIXIX",
"IXIXIXIXIXIXIXIXIXIXIXIXIXIXIXIXIXIXIXIXIXIXIXIXIXIXIXIX.Xu ; 1 c.c.j V.U.ZXPXdXwXaXuX8XF.}.IXIXIXIXIXIXIXIXIXIXIXIXIXIXIXIXIXIX",
"IXIXIXIXIXIXIXIXIXIXIXIXIXIXIXIXIXIXIXIXIXIXIXIXIXIXIXIX0Xi - q j.c.c.k./ UXIXIXIXIXJX0X[ +XIXIXIXIXIXIXIXIXIXIXIXIXIXIXIXIXIXIX",
"IXIXIXIXIXIXIXIXIXIXIXIXIXIXIXIXIXIXIXIXIXIXIXIXIXIXIXIXsXs w r g x.c.k.R ZXIXIXIXIXUXwXZ.`.IXIXIXIXIXIXIXIXIXIXIXIXIXIXIXIXIXIX",
"IXIXIXIXIXIXIXIXIXIXIXIXIXIXIXIXIXIXIXIXIXIXIXIXIXIXIXIXPXZ.s 6 ; a k x.b sXIXIXIXIXPXpXK.[ PXIXIXIXIXIXIXIXIXIXIXIXIXIXIXIXIXIX",
"IXIXIXIXIXIXIXIXIXIXIXIXIXIXIXIXIXIXIXIXIXIXIXIXIXIXIXIXIXJXVXdXC.3 u z.h oXIXIXIXIXIXVX].V I.JXIXIXIXIXIXIXIXIXIXIXIXIXIXIXIXIX",
"IXIXIXIXIXIXIXIXIXIXIXIXIXIXIXIXIXIXIXIXIXIXIXIXIXIXIXIXIXIXIXIXIXXX0 p y D.IXIXIXIXIXFX+X) 2 B.wXJXIXIXIXIXIXIXIXIXIXIXIXIXIXIX",
"IXIXIXIXIXIXIXIXIXIXIXIXIXIXIXIXIXIXIXIXIXIXIXIXIXIXIXIXIXIXIXIXIXIXqXs h.P FXIXIXIXIXUXiXK.f k.k W 8XIXIXIXIXIXIXIXIXIXIXIXIXIX",
"IXIXIXIXIXIXIXIXIXIXIXIXIXIXIXIXIXIXIXIXIXIXIXIXIXIXIXIXIXIXIXIXIXIXIXV.h.d +XIXIXIXIXIXCX}.I q j.r V.IXIXIXIXIXIXIXIXIXIXIXIXIX",
"IXIXIXIXIXIXIXIXIXIXIXIXIXIXIXIXIXIXIXIXIXIXIXIXIXIXIXIXIXIXIXIXIXIXIXU.r k.` UXIXIXIXIXJXrXF.7 t q C.IXIXIXIXIXIXIXIXIXIXIXIXIX",
"IXIXIXIXIXIXIXIXIXIXIXIXIXIXIXIXIXIXIXIXIXIXIXIXIXIXIXIXIXIXIXIXIXIXIXXXq l.f 8XIXIXIXIXIXsX}.U h ; Y.IXIXIXIXIXIXIXIXIXIXIXIXIX",
"IXIXIXIXIXIXIXIXIXIXIXIXIXIXIXIXIXIXIXIXIXIXIXIXIXIXIXIXIXIXIXIXIXIXIXeXf c.k.Q CXIXIXIXIXZXqXK.6 7 qXIXIXIXIXIXIXIXIXIXIXIXIXIX",
"IXIXIXIXIXIXIXIXIXIXIXIXIXIXIXIXIXIXIXIXIXIXIXIXIXIXIXIXIXIXIXIXIXIXIXVXn c.c.t D.JXIXIXIXJXpX'.Y 5 eXIXIXIXIXIXIXIXIXIXIXIXIXIX",
"IXIXIXIXIXIXIXIXIXIXIXIXIXIXIXIXIXIXIXIXIXIXIXIXIXIXIXIXIXIXIXIXIXIXIXJXP k.c.c.j D.ZXIXIXJXpX}.J.& :.JXIXIXIXIXIXIXIXIXIXIXIXIX",
"IXIXIXIXIXIXIXIXIXIXIXIXIXIXIXIXIXIXIXIXIXIXIXIXIXIXIXIXIXIXIXIXIXIXIXIXV.h.c.c.c.j ^ XXpXwXoX_.{ % E.PXIXIXIXIXIXIXIXIXIXIXIXIX",
"IXIXIXIXIXIXIXIXIXIXIXIXIXIXIXIXIXIXIXIXIXIXIXIXIXIXIXIXIXIXIXIXIXIXIXIX'.y c.c.c.c.j.d 9 v V c 3 : F.JXIXIXIXIXIXIXIXIXIXIXIXIX",
"IXIXIXIXIXIXIXIXIXIXIXIXIXIXIXIXIXIXIXIXIXIXIXIXIXIXIXIXIXIXIXIXIXIXIXIXVXm l.c.c.c.c.c.c.k.t h.j u - ` VXIXIXIXIXIXIXIXIXIXIXIX",
"IXIXIXIXIXIXIXIXIXIXIXIXIXIXIXIXIXIXIXIXIXIXIXIXIXIXIXIXIXIXIXIXIXIXIXIXIXP.t c.c.c.c.c.c.c.c.c.x.g u - Q JXIXIXIXIXIXIXIXIXIXIX",
"IXIXIXIXIXIXIXIXIXIXIXIXIXIXIXIXIXIXIXIXIXIXIXIXIXIXIXIXIXIXIXIXIXIXIXIXIXZXM.t c.c.c.c.c.c.c.c.z.g p u L CXIXIXIXIXIXIXIXIXIXIX",
"IXIXIXIXIXIXIXIXIXIXIXIXIXIXIXIXIXIXIXIXIXIXIXIXIXIXIXIXIXIXIXIXIXIXIXIXIX;X>.@ 7 j.c.c.c.c.c.x.j g u - 5 K.CXIXIXIXIXIXIXIXIXIX",
"IXIXIXIXIXIXIXIXIXIXIXIXIXIXIXIXIXIXIXIXIXIXIXIXIXIXIXIXIXIXIXIXIXIXIXIXIX-X .| +   < q t t y a u - , @ + o XXIXIXIXIXIXIXIXIXIX",
"IXIXIXIXIXIXIXIXIXIXIXIXIXIXIXIXIXIXIXIXIXIXIXIXIXIXIXIXIXIXIXIXIXIXIXIXIXIXpX[.G._ C M 5 X . . X X $ } + # XXIXIXIXIXIXIXIXIXIX",
"IXIXIXIXIXIXIXIXIXIXIXIXIXIXIXIXIXIXIXIXIXIXIXIXIXIXIXIXIXIXIXIXIXIXIXIXIXIXIXIXIXJXVXwX'.Y.F.[ [ T.@XR.T.8XJXIXIXIXIXIXIXIXIXIX",
"IXIXIXIXIXIXIXIXIXIXIXIXIXIXIXIXIXIXIXIXIXIXIXIXIXIXIXIXIXIXIXIXIXIXIXIXIXIXIXIXIXIXIXIXIXPXJXFXZXUXIXIXIXIXIXIXIXIXIXIXIXIXIXIX"
};
